<svg xmlns="http://www.w3.org/2000/svg" viewBox="0 0 96 96">
  <defs>
    <linearGradient id="gold" x1="0" y1="0" x2="1" y2="1">
      <stop offset="0%" stop-color="#F7E07D"/>
      <stop offset="60%" stop-color="#D4AF37"/>
      <stop offset="100%" stop-color="#B8890B"/>
    </linearGradient>
    <linearGradient id="green" x1="0" y1="0" x2="0" y2="1">
      <stop offset="0%" stop-color="#1B7D52"/>
      <stop offset="100%" stop-color="#0F5C3E"/>
    </linearGradient>
  </defs>
  <path d="M48 6 C57 13 70 13 80 15 C80 44 70 70 48 82 C26 70 16 44 16 15 C26 13 39 13 48 6 Z" fill="url(#gold)"/>
  <path d="M48 11 C56 17 68 17 76 18 C76 43 67 66 48 78 C29 66 20 43 20 18 C28 17 40 17 48 11 Z" fill="url(#green)"/>
  <text x="48" y="56" font-family="Poppins, Arial, sans-serif" font-weight="700" font-size="30" fill="#fff" text-anchor="middle">Ya</text>
</svg>
